<?xml version="1.0" encoding="UTF-8"?>
<mxfile host="app.diagrams.net">
  <diagram name="Arquitetura Geral">
    <mxGraphModel dx="800" dy="600" grid="1" gridSize="10" guides="1" tooltips="1" connect="1" arrows="1" fold="1">
      <root>
        <mxCell id="0"/>
        <mxCell id="1" parent="0"/>

        <!-- Usuário -->
        <mxCell id="2" value="Usuário" style="ellipse" vertex="1" parent="1" mxGeometry="{'x':20,'y':20,'width':80,'height':50}"/>

        <!-- Frontend Web -->
        <mxCell id="3" value="Frontend Web" style="rectangle" vertex="1" parent="1" mxGeometry="{'x':120,'y':10,'width':120,'height':60}"/>

        <!-- Backend API -->
        <mxCell id="4" value="Backend API" style="rectangle" vertex="1" parent="1" mxGeometry="{'x':270,'y':10,'width':120,'height':60}"/>

        <!-- Banco de Dados -->
        <mxCell id="5" value="Banco de Dados" style="cylinder" vertex="1" parent="1" mxGeometry="{'x':420,'y':10,'width':120,'height':60}"/>

        <!-- Dispositivos IoT -->
        <mxCell id="6" value="Dispositivos IoT" style="rectangle" vertex="1" parent="1" mxGeometry="{'x':270,'y':100,'width':120,'height':60}"/>

        <!-- Integrações -->
        <mxCell id="7" value="ERP / TMS / OMS" style="cloud" vertex="1" parent="1" mxGeometry="{'x':420,'y':100,'width':120,'height':60}"/>

        <!-- Conexões -->
        <mxCell id="8" source="2" target="3" edge="1" parent="1" style="orthogonalEdgeStyle"/>
        <mxCell id="9" source="3" target="4" edge="1" parent="1" style="orthogonalEdgeStyle"/>
        <mxCell id="10" source="4" target="5" edge="1" parent="1" style="orthogonalEdgeStyle"/>
        <mxCell id="11" source="4" target="6" edge="1" parent="1" style="orthogonalEdgeStyle"/>
        <mxCell id="12" source="4" target="7" edge="1" parent="1" style="orthogonalEdgeStyle"/>
      </root>
    </mxGraphModel>
  </diagram>
</mxfile>
